<svg width="140" height="30" viewBox="0 0 140 30" fill="none" xmlns="http://www.w3.org/2000/svg">
    <path fill-rule="evenodd" clip-rule="evenodd" d="M3.773 20.688h3.981v1.529H2.16V7.527h1.613v13.161zm12.45-11.885c3.326 0 5.896 2.754 5.896 6.07 0 3.316-2.62 6.07-5.896 6.07-3.327 0-5.948-2.754-5.948-6.07 0-3.316 2.62-6.07 5.947-6.07zm0-1.53c-4.134 0-7.56 3.417-7.56 7.6 0 4.233 3.426 7.6 7.56 7.6 4.132 0 7.559-3.367 7.559-7.6 0-4.183-3.427-7.6-7.56-7.6zm11.289 8.976c0 1.124 0 2.347.655 3.316.655.867 1.865 1.378 2.924 1.378 1.058 0 2.167-.459 2.822-1.275.806-.97.756-2.245.756-3.419V7.528h1.613v9.18c0 1.633-.152 2.857-1.311 4.08-.957 1.072-2.419 1.684-3.88 1.684-1.361 0-2.773-.51-3.73-1.48-1.31-1.223-1.462-2.601-1.462-4.284v-9.18h1.613v8.721zm11.642-8.721h1.613v14.689h-1.613V7.527zm11.14 2.855c-.555-1.02-1.26-1.58-2.47-1.58-1.31 0-2.42.918-2.42 2.295 0 1.224 1.26 1.836 2.269 2.296l.958.408c1.865.867 3.477 1.785 3.477 4.13a4.5 4.5 0 0 1-4.536 4.54c-2.369 0-4.082-1.529-4.535-3.824l1.562-.409c.201 1.48 1.36 2.704 2.923 2.704s2.974-1.173 2.974-2.856c0-1.735-1.311-2.296-2.671-2.908l-.908-.408c-1.663-.765-3.125-1.632-3.125-3.724 0-2.295 1.916-3.774 4.033-3.774 1.612 0 2.973.867 3.78 2.295l-1.311.815zM64.96 18.75l4.133-11.221h1.713L64.96 23.086 59.063 7.528h1.714l4.183 11.22zm9.021-2.5c0 1.124-.05 2.347.605 3.316.656.867 1.865 1.378 2.923 1.378 1.059 0 2.218-.459 2.873-1.275.756-.97.706-2.245.706-3.419V7.528H82.7v9.18c0 1.633-.101 2.857-1.26 4.08-1.008 1.072-2.47 1.684-3.932 1.684-1.36 0-2.721-.51-3.73-1.48-1.26-1.223-1.41-2.601-1.41-4.284v-9.18h1.612v8.721zm11.644-8.721h1.612v14.689h-1.612V7.527zm8.365 14.689h-1.612V9.057H88.9v-1.53h8.67v1.53h-3.58v13.16zm9.073 0h-1.614V9.057h-3.526v-1.53h8.668v1.53h-3.528v13.16zm11.996-13.414c3.327 0 5.947 2.754 5.947 6.07 0 3.316-2.621 6.07-5.947 6.07-3.276 0-5.948-2.754-5.948-6.07 0-3.316 2.621-6.07 5.948-6.07zm0-1.53c-4.133 0-7.56 3.417-7.56 7.6 0 4.233 3.427 7.6 7.56 7.6 4.132 0 7.559-3.367 7.559-7.6 0-4.183-3.427-7.6-7.559-7.6zm9.878-.358 11.289 11.988V7.528h1.614V22.88l-11.29-11.987v11.323h-1.613V6.915z" fill="#000"/>
</svg>
