<?xml version="1.0" standalone="no"?>
<!DOCTYPE svg PUBLIC "-//W3C//DTD SVG 20010904//EN"
 "http://www.w3.org/TR/2001/REC-SVG-20010904/DTD/svg10.dtd">
<svg version="1.0" xmlns="http://www.w3.org/2000/svg"
 width="700.000000pt" height="700.000000pt" viewBox="0 0 700.000000 700.000000"
 preserveAspectRatio="xMidYMid meet">
<metadata>
Created by potrace 1.11, written by Peter Selinger 2001-2013
</metadata>
<g transform="translate(0.000000,700.000000) scale(0.100000,-0.100000)"
fill="#000000" stroke="none">
<path d="M0 6795 l0 -205 48 0 c160 -1 209 -7 270 -32 202 -84 344 -233 467
-492 54 -113 102 -225 310 -721 64 -154 127 -305 140 -335 33 -75 316 -750
459 -1095 65 -154 123 -293 131 -310 7 -16 37 -86 65 -155 29 -69 58 -138 66
-155 7 -16 60 -143 118 -281 l105 -251 -45 -119 c-53 -138 -209 -551 -329
-869 -46 -121 -113 -299 -150 -395 -37 -96 -70 -184 -73 -195 -3 -11 -11 -29
-18 -40 -7 -11 -22 -45 -34 -75 -155 -405 -354 -611 -656 -680 -77 -17 -96
-18 -407 -19 l-288 -1 -35 -77 c-54 -121 -124 -283 -124 -290 0 -2 1360 -3
3023 -3 l3022 0 143 283 c79 155 204 401 278 547 313 613 463 913 460 919 -2
3 -107 6 -232 6 l-228 -1 -23 -59 c-13 -33 -28 -69 -33 -80 -5 -11 -17 -45
-28 -75 -41 -113 -139 -301 -230 -440 -168 -257 -404 -478 -632 -591 -96 -48
-217 -91 -305 -109 -33 -6 -78 -16 -100 -20 -22 -5 -642 -8 -1416 -7 -1361 2
-1377 2 -1399 22 -39 35 -23 99 126 482 74 191 141 366 150 388 9 22 23 58 31
80 9 22 21 54 28 70 7 17 18 45 25 64 l14 34 22 -49 c23 -52 277 -655 293
-696 8 -23 11 -23 177 -26 93 -2 279 -5 414 -5 l244 -2 76 172 c41 94 83 188
92 210 9 21 75 171 146 333 71 162 155 354 186 425 32 72 64 144 71 160 7 17
22 50 33 75 11 25 29 66 41 92 39 87 58 132 164 373 58 132 116 265 130 295
13 30 86 197 162 370 75 173 150 343 166 378 16 35 29 65 29 67 0 2 13 32 29
67 16 35 68 153 116 263 48 110 97 223 110 250 12 28 46 104 75 170 74 172 80
186 101 230 29 62 179 406 179 410 0 2 15 36 34 77 18 40 57 127 86 193 28 66
58 134 65 150 14 29 148 335 268 610 104 239 238 386 416 457 49 19 77 23 216
25 l160 2 3 205 2 206 -877 -2 -878 -3 -2 -202 -1 -203 36 0 c248 -2 276 -5
329 -34 67 -37 97 -70 117 -129 32 -96 16 -210 -58 -402 -26 -66 -56 -145 -68
-175 -12 -30 -34 -82 -49 -115 -23 -49 -282 -640 -336 -765 -8 -19 -23 -53
-33 -75 -10 -22 -28 -62 -40 -90 -12 -27 -28 -63 -35 -80 -8 -16 -188 -426
-400 -910 -213 -484 -393 -893 -400 -910 -18 -40 -154 -350 -195 -445 -18 -41
-44 -100 -57 -130 -14 -30 -40 -89 -58 -130 -18 -41 -47 -105 -64 -143 -17
-37 -31 -69 -31 -72 0 -2 -15 -36 -33 -77 -19 -40 -49 -108 -67 -151 -32 -74
-69 -127 -87 -127 -22 1 -60 57 -93 139 -9 25 -33 84 -53 131 -36 87 -52 127
-221 540 -101 245 -103 250 -132 315 -9 22 -17 45 -17 50 0 6 42 118 93 250
51 132 103 267 115 300 19 54 239 626 320 835 18 47 63 164 100 260 224 585
270 702 303 770 20 41 39 77 43 80 3 3 16 23 29 45 85 143 234 274 364 319 54
19 82 22 233 21 l172 -1 42 105 c23 58 48 120 55 136 17 39 84 216 84 221 0 2
-489 4 -1087 4 l-1088 0 -88 -223 c-48 -122 -89 -226 -90 -232 -1 -5 52 -10
129 -10 118 -1 134 -4 174 -26 73 -41 101 -126 75 -234 -9 -40 -211 -591 -245
-670 -5 -11 -36 -94 -70 -185 -145 -388 -182 -484 -191 -494 -4 -4 -10 3 -14
15 -4 13 -17 44 -27 69 -28 63 -38 85 -108 255 -34 83 -71 168 -81 190 -9 22
-45 108 -79 190 -34 83 -70 168 -80 190 -10 22 -33 78 -53 125 -20 47 -86 204
-147 350 -62 146 -130 308 -152 360 -22 52 -45 109 -53 125 -103 231 -177 442
-177 503 0 112 75 141 365 142 l27 0 0 205 0 205 -1045 0 -1045 0 0 -205z"/>
</g>
</svg>
